<svg width="100" height="100" viewBox="0 0 100 100" fill="none" xmlns="http://www.w3.org/2000/svg">
<rect width="100" height="100" fill="#FEFFFE"/>
<path d="M24 25.0947C24 22.5736 25.208 21.3131 27.6241 21.3131H30.5128C32.4737 21.3131 33.8042 22.0484 34.5045 23.519C35.4849 25.6199 36.3253 28.3861 37.0256 31.8176C40.177 26.0751 44.869 22.3985 51.1017 20.7878C53.0625 20.2626 55.4961 20 58.4023 20C61.3436 20 64.0573 20.6303 66.5433 21.8908C69.0294 23.1163 70.9902 24.8146 72.4259 26.9855C75.087 30.9422 76.4176 36.7722 76.4176 44.4755V77.0921C76.4176 78.0725 76.1025 78.8954 75.4722 79.5607C74.8419 80.226 73.914 80.5586 72.6885 80.5586H67.5413C66.2107 80.5586 65.2303 80.226 64.6 79.5607C63.9697 78.8954 63.6546 78.0725 63.6546 77.0921V44.423C63.6546 35.4592 60.3632 30.9772 53.7803 30.9772C49.9287 30.9772 46.4097 32.5879 43.2233 35.8093C39.8268 39.2758 38.1286 43.3025 38.1286 47.8895V77.0921C38.1286 78.0725 37.831 78.8954 37.2357 79.5607C36.6404 80.226 35.7301 80.5586 34.5045 80.5586H29.0947C27.8692 80.5586 26.9413 80.226 26.311 79.5607C25.6807 78.8954 25.3656 78.0725 25.3656 77.0921V44.8432C25.3656 37.8052 25.138 32.9031 24.6828 30.1369C24.2276 27.3357 24 25.6549 24 25.0947Z" fill="black"/>
</svg>
