<svg width="321" height="151" viewBox="0 0 321 151" fill="none" xmlns="http://www.w3.org/2000/svg">
<path d="M275.709 30.043C273.053 30.043 270.788 29.125 268.913 27.2891C267.038 25.4922 266.1 23.2266 266.1 20.4922C266.1 17.8359 267.038 15.5703 268.913 13.6953C270.709 11.8984 272.975 11 275.709 11C279.889 11 282.819 12.9141 284.499 16.7422C285.006 17.875 285.26 19.125 285.26 20.4922C285.26 23.2266 284.323 25.4922 282.448 27.2891C280.573 29.125 278.327 30.043 275.709 30.043ZM282.565 91.332C282.565 94.1055 283.483 95.4922 285.319 95.4922C285.944 95.4922 286.647 95.3164 287.428 94.9648C288.952 94.3008 289.987 93.9688 290.534 93.9688C291.354 93.9688 292.018 94.5352 292.526 95.668L294.342 99.7695C294.655 100.434 294.811 101.059 294.811 101.645C294.811 103.324 293.366 104.887 290.475 106.332C287.741 107.738 285.026 108.441 282.331 108.441C279.674 108.441 277.545 108.148 275.944 107.562C274.342 106.977 272.975 106 271.842 104.633C269.577 101.82 268.444 97.25 268.444 90.9219V45.2188C268.444 44.125 268.756 43.207 269.381 42.4648C270.006 41.7227 270.749 41.3516 271.608 41.3516H279.459C280.358 41.3516 281.1 41.7227 281.686 42.4648C282.272 43.207 282.565 44.125 282.565 45.2188V91.332Z" fill="currentColor"/>
<path d="M207.513 101.176C211.185 99.3789 215.072 98.4805 219.173 98.4805C223.314 98.4805 226.986 98.8711 230.189 99.6523C233.431 100.395 236.341 101.586 238.919 103.227C244.701 106.898 247.591 112.035 247.591 118.637C247.591 125.512 244.31 131.039 237.748 135.219C231.927 138.891 224.935 140.727 216.771 140.727C208.451 140.727 201.517 138.93 195.97 135.336C189.994 131.43 187.005 126.117 187.005 119.398C187.005 111.234 191.322 103.344 199.955 95.7266C203.314 92.7969 207.025 90.1602 211.087 87.8164C204.72 87.2305 199.291 84.9844 194.798 81.0781C189.759 76.6641 187.24 71.1758 187.24 64.6133C187.24 57.0742 190.072 50.9609 195.736 46.2734C200.931 42.0156 207.123 39.8867 214.31 39.8867C222.044 39.8867 228.119 41.9766 232.533 46.1562C233.9 47.4453 234.994 48.9102 235.814 50.5508C235.814 46.957 235.345 43.2461 234.408 39.418C233.509 35.5508 233.06 33.2461 233.06 32.5039C233.06 31.7617 233.197 31.1758 233.47 30.7461C233.783 30.2773 234.134 29.9258 234.525 29.6914C235.111 29.3398 235.775 29.1641 236.517 29.1641H241.556C244.798 29.1641 246.419 33.6758 246.419 42.6992C246.419 49.9258 244.974 56.5859 242.083 62.6797C242.162 63.5391 242.201 64.6719 242.201 66.0781C242.201 67.4844 241.888 69.125 241.263 71C240.638 72.875 239.798 74.6328 238.744 76.2734C237.728 77.875 236.537 79.3594 235.169 80.7266C233.841 82.0938 232.416 83.3633 230.892 84.5352C229.408 85.707 227.904 86.7812 226.38 87.7578C217.826 93.1875 212.708 96.5859 211.029 97.9531C209.349 99.2812 208.177 100.355 207.513 101.176ZM204.818 73.9883C206.146 75.1211 207.689 76 209.447 76.625C211.244 77.2109 213.138 77.5039 215.13 77.5039C217.162 77.5039 219.017 77.2109 220.697 76.625C222.376 76 223.861 75.1016 225.15 73.9297C227.884 71.4688 229.251 68.3047 229.251 64.4375C229.251 60.4922 227.728 57.3867 224.681 55.1211C221.986 53.1289 218.666 52.1328 214.72 52.1328C208.47 52.1328 204.154 54.457 201.771 59.1055C200.99 60.6289 200.599 62.4062 200.599 64.4375C200.599 66.4297 200.97 68.2266 201.712 69.8281C202.455 71.4297 203.49 72.8164 204.818 73.9883ZM202.005 112.016C200.56 113.656 199.837 115.473 199.837 117.465C199.837 119.457 200.326 121.156 201.302 122.562C202.279 123.969 203.568 125.141 205.169 126.078C208.255 127.836 212.123 128.715 216.771 128.715C224.115 128.715 229.232 126.898 232.123 123.266C233.06 122.055 233.529 120.531 233.529 118.695C233.529 116.859 232.943 115.297 231.771 114.008C230.638 112.719 229.212 111.723 227.494 111.02C224.642 109.848 220.931 109.262 216.361 109.262C209.33 109.262 204.544 110.18 202.005 112.016Z" fill="currentColor"/>
<path d="M167.266 104.34C167.266 106.41 166.251 107.445 164.219 107.445H158.536C157.012 107.445 156.094 107.152 155.782 106.566C155.469 105.941 155.294 105.395 155.255 104.926C155.216 104.418 155.137 103.812 155.02 103.109C154.786 101.195 154.454 99.125 154.024 96.8984C150.977 102.484 146.192 106.176 139.669 107.973C137.364 108.598 134.825 108.91 132.052 108.91C129.278 108.91 126.505 108.441 123.731 107.504C120.958 106.605 118.497 105.258 116.348 103.461C111.505 99.3984 109.083 94.0664 109.083 87.4648C109.083 80.2383 111.739 74.7109 117.052 70.8828C121.427 67.7969 127.052 66.2539 133.927 66.2539C140.802 66.2539 146.622 68.2656 151.387 72.2891C151.505 70.9609 151.563 69.3008 151.563 67.3086C151.563 65.3164 151.173 63.3242 150.391 61.332C149.61 59.3398 148.497 57.6797 147.052 56.3516C144.083 53.7344 139.942 52.4258 134.63 52.4258C129.864 52.4258 125.02 53.7344 120.098 56.3516C119.161 56.8594 118.341 57.1133 117.637 57.1133C116.583 57.1133 115.567 56.0781 114.591 54.0078C113.536 51.8984 113.009 50.375 113.009 49.4375C113.009 47.7188 114.298 46.0586 116.876 44.457C121.798 41.4102 128.38 39.8867 136.622 39.8867C144.122 39.8867 150.333 41.9375 155.255 46.0391C161.075 50.9609 163.985 57.9141 163.985 66.8984C163.985 70.8828 163.341 75.9023 162.052 81.957C165.372 91.4102 167.11 98.8711 167.266 104.34ZM128.009 79.4961C126.407 80.668 125.255 81.8398 124.552 83.0117C123.887 84.1836 123.555 85.5703 123.555 87.1719C123.555 88.7344 123.829 90.1406 124.376 91.3906C124.962 92.6016 125.762 93.6172 126.778 94.4375C128.927 96.1172 131.329 96.957 133.985 96.957C136.68 96.957 138.887 96.6445 140.606 96.0195C142.325 95.3945 143.809 94.5938 145.059 93.6172C147.755 91.5078 149.102 89.2812 149.102 86.9375C148.868 84.0078 147.247 81.7031 144.239 80.0234C141.544 78.4609 138.36 77.6797 134.688 77.6797C131.837 77.6797 129.61 78.2852 128.009 79.4961Z" fill="currentColor"/>
<path d="M27 45.5703C27 42.7578 28.3477 41.3516 31.043 41.3516H34.2656C36.4531 41.3516 37.9375 42.1719 38.7188 43.8125C39.8125 46.1562 40.75 49.2422 41.5312 53.0703C45.0469 46.6641 50.2812 42.5625 57.2344 40.7656C59.4219 40.1797 62.1367 39.8867 65.3789 39.8867C68.6602 39.8867 71.6875 40.5898 74.4609 41.9961C77.2344 43.3633 79.4219 45.2578 81.0234 47.6797C83.9922 52.0938 85.4766 58.5977 85.4766 67.1914V103.578C85.4766 104.672 85.125 105.59 84.4219 106.332C83.7188 107.074 82.6836 107.445 81.3164 107.445H75.5742C74.0898 107.445 72.9961 107.074 72.293 106.332C71.5898 105.59 71.2383 104.672 71.2383 103.578V67.1328C71.2383 57.1328 67.5664 52.1328 60.2227 52.1328C55.9258 52.1328 52 53.9297 48.4453 57.5234C44.6562 61.3906 42.7617 65.8828 42.7617 71V103.578C42.7617 104.672 42.4297 105.59 41.7656 106.332C41.1016 107.074 40.0859 107.445 38.7188 107.445H32.6836C31.3164 107.445 30.2812 107.074 29.5781 106.332C28.875 105.59 28.5234 104.672 28.5234 103.578V67.6016C28.5234 59.75 28.2695 54.2812 27.7617 51.1953C27.2539 48.0703 27 46.1953 27 45.5703Z" fill="currentColor"/>
</svg>
